<?xml version="1.0" encoding="UTF-8"?>
<svg version="1.1" xmlns="http://www.w3.org/2000/svg" width="665" height="183">
<path d="M0 0 C219.45 0 438.9 0 665 0 C665 60.39 665 120.78 665 183 C445.55 183 226.1 183 0 183 C0 122.61 0 62.22 0 0 Z " fill="#FEFEFE" transform="translate(0,0)"/>
<path d="M0 0 C12.54 0 25.08 0 38 0 C43.0153093 15.66184307 48.02267429 31.32604822 53 47 C53.50260019 48.58219527 54.00520469 50.16438918 54.5078125 51.74658203 C55.94293408 56.2646822 57.37726366 60.78303332 58.81118774 65.30151367 C59.38813069 67.11928078 59.96525407 68.93699063 60.54257202 70.75463867 C63.45069689 79.91153511 66.34618408 89.07089822 69.1574707 98.25805664 C69.92088394 100.74252318 70.69776011 103.2220173 71.484375 105.69921875 C71.69707031 106.37017578 71.90976562 107.04113281 72.12890625 107.73242188 C72.55680055 109.07934702 72.98660105 110.4256676 73.41796875 111.77148438 C75 116.77797457 75 116.77797457 75 119 C65.43 119 55.86 119 46 119 C45.01 115.57625 44.02 112.1525 43 108.625 C42.68675781 107.54686035 42.37351562 106.4687207 42.05078125 105.35791016 C41.80714844 104.51019043 41.56351563 103.6624707 41.3125 102.7890625 C41.06113281 101.91975098 40.80976562 101.05043945 40.55078125 100.15478516 C40 98 40 98 40 96 C28.12 96.33 16.24 96.66 4 97 C2.06681907 103.86507441 2.06681907 103.86507441 0.14086914 110.73217773 C-0.22083374 112.00750366 -0.22083374 112.00750366 -0.58984375 113.30859375 C-0.83597412 114.18314209 -1.08210449 115.05769043 -1.33569336 115.95874023 C-2 118 -2 118 -3 119 C-4.92667507 119.08748207 -6.85651861 119.10697334 -8.78515625 119.09765625 C-10.53989258 119.09282227 -10.53989258 119.09282227 -12.33007812 119.08789062 C-14.17762695 119.07532227 -14.17762695 119.07532227 -16.0625 119.0625 C-17.91584961 119.05573242 -17.91584961 119.05573242 -19.80664062 119.04882812 C-22.87114117 119.03699608 -25.93554721 119.02051173 -29 119 C-28.35788751 112.46359462 -26.39344335 106.51925718 -24.3515625 100.296875 C-23.98270935 99.15696106 -23.6138562 98.01704712 -23.23382568 96.84259033 C-22.03588528 93.14341709 -20.83037343 89.44675706 -19.625 85.75 C-18.80348698 83.21637313 -17.98249067 80.68258812 -17.16259766 78.1484375 C-16.95928267 77.5200573 -16.75596767 76.89167709 -16.54649162 76.24425507 C-16.34335917 75.61640358 -16.14022671 74.98855209 -15.93093872 74.3416748 C-15.11307132 71.81389474 -14.29461116 69.2863064 -13.47555542 66.75891113 C-10.05272647 56.18999958 -6.69227039 45.60246548 -3.375 35 C-3.14371399 34.26148804 -2.91242798 33.52297607 -2.6741333 32.76208496 C-1.44672489 28.84222886 -0.22179571 24.92160996 1 21 C-2.63 21 -6.26 21 -10 21 C-7.12055774 13.80139435 -3.46730763 6.93461527 0 0 Z " fill="#424242" transform="translate(527,31)"/>
<path d="M0 0 C12.21 0 24.42 0 37 0 C41.48563969 11.21409922 41.48563969 11.21409922 42.9375 16.125 C43.43636719 17.78595703 43.43636719 17.78595703 43.9453125 19.48046875 C44.29335938 20.64191406 44.64140625 21.80335937 45 23 C45.76693546 25.48047309 46.53700276 27.95971456 47.3125 30.4375 C47.51665527 31.09097412 47.72081055 31.74444824 47.93115234 32.41772461 C50.08943708 39.31201907 52.2886984 46.19323899 54.48364258 53.07592773 C56.32688382 58.86301158 58.13299482 64.65981063 59.90625 70.46875 C61.40932181 75.32152469 62.95609564 80.16008824 64.5 85 C65.39926692 87.8260635 66.29810906 90.65226171 67.19677734 93.47851562 C67.68763146 95.01940964 68.17981342 96.55988248 68.67431641 98.09960938 C69.22513848 99.81488468 69.76912094 101.53235232 70.3125 103.25 C70.59738281 104.14203125 70.88226563 105.0340625 71.17578125 105.953125 C72.33771474 110.24842416 73.12734525 114.63672623 74 119 C64.43 119 54.86 119 45 119 C44.175 115.9475 43.35 112.895 42.5 109.75 C42.23896484 108.79448242 41.97792969 107.83896484 41.70898438 106.85449219 C41.50595703 106.09297852 41.30292969 105.33146484 41.09375 104.546875 C40.88427734 103.77182617 40.67480469 102.99677734 40.45898438 102.19824219 C40 100 40 100 40 96 C28.12 96.33 16.24 96.66 4 97 C1.56643837 104.3006849 -0.78868631 111.62895435 -3 119 C-11.91 119 -20.82 119 -30 119 C-26.62473207 105.49892828 -26.62473207 105.49892828 -25.05810547 100.65014648 C-24.706987 99.55697617 -24.35586853 98.46380585 -23.99411011 97.33750916 C-23.43628342 95.62163353 -23.43628342 95.62163353 -22.8671875 93.87109375 C-22.47105255 92.64254166 -22.0749176 91.41398956 -21.66677856 90.14820862 C-20.8303763 87.55481177 -19.99144241 84.96225398 -19.15039062 82.37036133 C-18.10164369 79.1383349 -17.05730185 75.90490944 -16.01467514 72.67090416 C-10.44938184 55.41125337 -4.7651322 38.19384279 1 21 C-2.63 21 -6.26 21 -10 21 C-9.19586939 17.78347758 -8.45983637 15.72814649 -6.93359375 12.890625 C-6.57064209 12.21032227 -6.20769043 11.53001953 -5.83374023 10.82910156 C-5.37298096 9.97799805 -4.91222168 9.12689453 -4.4375 8.25 C-2.973125 5.5275 -1.50875 2.805 0 0 Z " fill="#424242" transform="translate(256,31)"/>
<path d="M0 0 C1.13050781 0.05800781 2.26101562 0.11601562 3.42578125 0.17578125 C16.88627957 1.56709054 30.1627673 8.80190067 39 19 C42.12962122 23.44563348 44.59586158 28.13607181 47 33 C45.33333333 34.66666667 43.66666667 36.33333333 42 38 C39 32.375 39 32.375 39 29 C26.73515687 27.53316718 18.18892417 28.17192006 7.9765625 35.37109375 C5.22312425 37.6402316 3.19958426 40.20052912 1 43 C0.34 43 -0.32 43 -1 43 C-1.98142381 47.24733832 -2.30920379 51.47324533 -2.5625 55.8125 C-2.62727539 56.85180664 -2.62727539 56.85180664 -2.69335938 57.91210938 C-2.79861453 59.60788686 -2.89972863 61.30392052 -3 63 C-5.27076842 63.02699725 -7.54162821 63.04639453 -9.8125 63.0625 C-11.70935547 63.07990234 -11.70935547 63.07990234 -13.64453125 63.09765625 C-17 63 -17 63 -20 62 C-19.39591468 57.41728381 -18.11319029 53.54664176 -16.4375 49.25 C-14.28412806 43.27194843 -13.53706599 37.78426339 -13.5625 31.4375 C-13.56499756 30.68823242 -13.56749512 29.93896484 -13.57006836 29.16699219 C-13.68839787 24.80107502 -14.2257618 21.05629723 -16 17 C-18.03243548 16.03122943 -18.03243548 16.03122943 -20 16 C-20.80469849 17.70112992 -20.80469849 17.70112992 -21 20 C-20.52046875 20.85207031 -20.0409375 21.70414063 -19.546875 22.58203125 C-17.59049728 26.90483555 -17.50570917 30.37702176 -17.5625 35.0625 C-17.56644775 35.89579834 -17.57039551 36.72909668 -17.57446289 37.58764648 C-17.7579163 45.56518322 -19.40526337 52.81052673 -23 60 C-25.31 59.67 -27.62 59.34 -30 59 C-28.35 59.99 -26.7 60.98 -25 62 C-26.55366745 66.97173583 -29.49754 71.18561608 -33 75 C-33.99 75.33 -34.98 75.66 -36 76 C-36.52207031 75.23816406 -37.04414062 74.47632812 -37.58203125 73.69140625 C-45.04753545 63.21878127 -54.28382119 52.89782709 -67.55859375 50.546875 C-69.69846531 50.29316168 -71.84947049 50.13654156 -74 50 C-73.67 51.65 -73.34 53.3 -73 55 C-71.9275 55.04125 -70.855 55.0825 -69.75 55.125 C-55.8253496 56.94553733 -45.41572434 67.59107779 -37 78 C-39.85536725 82.18787196 -42.29439689 85.24879737 -47.375 86.4375 C-48.91073149 86.66863016 -50.45352534 86.8574921 -52 87 C-53.00933594 87.10441406 -53.00933594 87.10441406 -54.0390625 87.2109375 C-62.00599258 87.62356734 -68.65138941 84.61717134 -75 80 C-75.81339844 79.57332031 -76.62679687 79.14664063 -77.46484375 78.70703125 C-80.46838959 76.68461286 -81.61211518 74.86418793 -83.3125 71.6875 C-84.08013672 70.30111328 -84.08013672 70.30111328 -84.86328125 68.88671875 C-86.1350804 65.65696076 -86.35746205 63.44116801 -86 60 C-84 57.1875 -84 57.1875 -82 55 C-82 54.67 -82 54.34 -82 54 C-83.65 54 -85.3 54 -87 54 C-84.70993722 37.21936759 -78.05110375 25.3167421 -65.125 14.62109375 C-55.39327546 7.28175149 -47.32716952 4.05192664 -35.25 3.625 C-28.1843874 3.37626907 -28.1843874 3.37626907 -21.4375 1.4375 C-14.75727185 -1.23984095 -7.06393804 -0.36845181 0 0 Z " fill="#FCF8FC" transform="translate(124,9)"/>
<path d="M0 0 C8.92767233 11.15319523 8.42352478 26.43118719 7 40 C5.82153166 45.74843631 3.14660787 50.36198876 -0.1875 55.125 C-1.97344578 57.95787951 -2.3247598 59.29336761 -2.8125 62.5 C-5.55706542 77.99051332 -16.37221046 90.4767523 -28.75 99.5390625 C-37.93685673 105.50413962 -46.64535573 108.39519074 -57.5625 108 C-63.22349552 107.79618378 -67.50308052 108.42601869 -73 110 C-89.33116042 111.69571311 -103.76554497 109.14710161 -117 99 C-121.94981062 94.75613252 -125.23155859 90.95046095 -128 85 C-126.93523437 85.00902344 -125.87046875 85.01804687 -124.7734375 85.02734375 C-114.17879006 84.89607612 -103.45549067 83.5332409 -95.58105469 75.56396484 C-88.31960606 67.09582648 -87.31116898 58.93758968 -87 48 C-84.72886197 48.14100857 -82.45809275 48.28796755 -80.1875 48.4375 C-78.92292969 48.51871094 -77.65835938 48.59992188 -76.35546875 48.68359375 C-73 49 -73 49 -70 50 C-71.06086033 53.21232472 -72.14679156 56.40923708 -73.2890625 59.59375 C-77.63495889 72.06749219 -78.8890172 83.37003891 -74 96 C-72.02 95.505 -72.02 95.505 -70 95 C-70.43869742 91.92911806 -70.94901416 89.14016184 -72.01171875 86.21875 C-74.7773796 77.21122218 -73.40824066 67.94422752 -70.6875 59.125 C-70.47472412 58.42906738 -70.26194824 57.73313477 -70.04272461 57.01611328 C-69.38671875 55.0703125 -69.38671875 55.0703125 -68 52 C-64.86650268 50.95550089 -64.01031744 51.06576355 -61 52 C-62.65 51.34 -64.3 50.68 -66 50 C-64.65994431 46.24651068 -62.99432841 43.34103233 -60.5625 40.1875 C-59.66724609 39.00220703 -59.66724609 39.00220703 -58.75390625 37.79296875 C-58.17511719 37.20128906 -57.59632812 36.60960937 -57 36 C-56.01 36 -55.02 36 -54 36 C-52.39305378 37.96671029 -50.946093 39.92068966 -49.5 42 C-43.09526397 50.74280328 -34.59074374 57.90027013 -24 61 C-21.55222137 61.27147268 -19.46911627 61.21013756 -17 61 C-17.33 59.35 -17.66 57.7 -18 56 C-18.73863281 55.93683594 -19.47726563 55.87367187 -20.23828125 55.80859375 C-33.26178239 54.23650657 -42.7933536 47.08100391 -51 37 C-51.85546875 34.79296875 -51.85546875 34.79296875 -52 33 C-50.6875 31.5 -50.6875 31.5 -49 30 C-48.731875 29.29875 -48.46375 28.5975 -48.1875 27.875 C-47.5996875 26.946875 -47.5996875 26.946875 -47 26 C-37.42767441 23.85715245 -27.7367975 23.56382878 -19.11328125 28.57421875 C-16.17184569 30.55873628 -13.60445114 32.57725476 -11 35 C-10.13375 35.78375 -9.2675 36.5675 -8.375 37.375 C-5.62525968 40.41418667 -3.91361622 43.38539158 -2 47 C-1.35242375 45.56328432 -0.70700547 44.12559584 -0.0625 42.6875 C0.29714844 41.88699219 0.65679687 41.08648437 1.02734375 40.26171875 C5.38278737 30.13400046 4.22945558 15.1842757 0.65625 4.9609375 C0 3 0 3 0 0 Z " fill="#FDFAFD" transform="translate(185,60)"/>
<path d="M0 0 C2.86724686 0.57344937 3.8614515 0.8614515 6 3 C10.27899644 18.31430304 5.50196062 32.76788758 0 47 C5.61 47.33 11.22 47.66 17 48 C16.92136231 43.2884554 16.92136231 43.2884554 16.81982422 38.57739258 C16.78637221 34.58203588 17.23134781 31.58604675 19 28 C20 31 20 31 19 34 C18.77439324 36.39254576 18.59151405 38.78928123 18.4375 41.1875 C18.35371094 42.45980469 18.26992187 43.73210937 18.18359375 45.04296875 C18.12300781 46.01878906 18.06242187 46.99460938 18 48 C31.25925831 45.58744264 45.59519185 42.41774785 54.1875 31.125 C56 29 56 29 58.75 28.6875 C59.4925 28.790625 60.235 28.89375 61 29 C61.3125 31.1875 61.3125 31.1875 61 34 C52.94761458 44.13042037 39.48098408 49.17351453 27 51 C24.63550698 51.13111791 22.37017267 51.10085841 20 51 C20.62396703 52.72953968 21.24922128 54.458615 21.875 56.1875 C22.22304687 57.15042969 22.57109375 58.11335938 22.9296875 59.10546875 C23.90990488 61.75634859 24.93720434 64.3813098 26 67 C27.65 66.34 29.3 65.68 31 65 C30.34 66.65 29.68 68.3 29 70 C36.94627357 79.3074408 45.97457391 89.40719978 58.875 90.625 C59.61492187 90.65851563 60.35484375 90.69203125 61.1171875 90.7265625 C63 91 63 91 65 93 C64.625 95.625 64.625 95.625 64 98 C55.59476891 99.14616788 48.79173103 94.60177289 42.0625 89.984375 C35.39861805 84.83837728 30.58730775 79.03211933 26 72 C21.45924219 76.14010271 18.28157862 80.82390176 15 86 C15.763125 86.103125 16.52625 86.20625 17.3125 86.3125 C20 87 20 87 23 90 C20.03 89.34 17.06 88.68 14 88 C9.09884761 101.32063203 6.19523863 113.37142984 12 127 C11.6875 130 11.6875 130 11 132 C9.68 132.33 8.36 132.66 7 133 C1.7171915 123.12344497 1.48775367 112.2856549 4.64404297 101.59692383 C6.38648887 96.13093849 8.41484935 91.1703013 11 86 C5.39 85.34 -0.22 84.68 -6 84 C-5.87625 86.0625 -5.7525 88.125 -5.625 90.25 C-5.6336878 98.8335511 -8.10436822 105.28066498 -13.5703125 111.90234375 C-22.82629101 120.68881611 -33.88647239 121.83281204 -46 122 C-38.4045381 133.07671527 -28.6549652 141.21041826 -15.421875 144.5 C-4.44607983 146.10376916 7.27668631 145.85955032 18 143 C13.07957475 147.92042525 3.36646682 148.21208487 -3.3125 148.4375 C-19.66683381 147.98321295 -34.78619939 141.97811908 -46.640625 130.671875 C-50.12664716 126.72412805 -54 121.4942875 -54 116 C-55.65 115.34 -57.3 114.68 -59 114 C-59 113.34 -59 112.68 -59 112 C-59.66 112 -60.32 112 -61 112 C-61 111.34 -61 110.68 -61 110 C-61.66 110 -62.32 110 -63 110 C-64.56832562 107.92605589 -65.98525735 105.87759434 -67.375 103.6875 C-67.77984619 103.05175049 -68.18469238 102.41600098 -68.60180664 101.76098633 C-71.91779081 96.40697669 -74.27785673 91.07031715 -76 85 C-76.33451172 83.95199219 -76.33451172 83.95199219 -76.67578125 82.8828125 C-79.92746298 71.15906203 -78.8758711 58.0614422 -74 47 C-72.82588188 45.26289779 -71.55255542 43.68896653 -70.22265625 42.0703125 C-68.12576147 38.51965999 -67.41248395 34.47901917 -66.45800781 30.50219727 C-65.28136506 25.71321312 -63.76816968 22.05339132 -61 18 C-60.67 18.66 -60.34 19.32 -60 20 C-60.92578125 22.57421875 -60.92578125 22.57421875 -62.3125 25.6875 C-64.22378387 30.09938026 -65.83517149 34.34068596 -67 39 C-64.03 38.505 -64.03 38.505 -61 38 C-62.07401108 40.91517292 -62.77810176 42.77810176 -65 45 C-65.49617036 49.69046379 -64.57521222 52.60093915 -62.3125 56.6875 C-61.81363281 57.61949219 -61.31476562 58.55148438 -60.80078125 59.51171875 C-58.77436775 62.31177385 -57.04770418 63.42296339 -54 65 C-52.87078125 65.66902344 -52.87078125 65.66902344 -51.71875 66.3515625 C-50.9865625 66.77179688 -50.254375 67.19203125 -49.5 67.625 C-48.7678125 68.05039063 -48.035625 68.47578125 -47.28125 68.9140625 C-39.74933244 72.49946161 -30.99220102 71.03602606 -23 70 C-22.505 68.515 -22.505 68.515 -22 67 C-20.70644173 65.62804426 -19.37701298 64.28817344 -18 63 C-27.85649104 51.41920556 -37.38332103 42.39434634 -53 41 C-54 40 -54 40 -54.0625 37.4375 C-54.041875 36.633125 -54.02125 35.82875 -54 35 C-44.40609726 34.04060973 -37.51098969 37.47578931 -30 43.34375 C-24.74289101 47.97229161 -19.54879908 52.89067501 -16 59 C-16 59.66 -16 60.32 -16 61 C-11.3478325 57.80994228 -8.53009634 53.97406173 -6 49 C-6 48.34 -6 47.68 -6 47 C-8.46326712 45.3553326 -8.46326712 45.3553326 -11 44 C-9 43 -9 43 -5.875 43.9375 C-4.92625 44.288125 -3.9775 44.63875 -3 45 C-2.51787786 43.43840941 -2.03944127 41.87568072 -1.5625 40.3125 C-1.29566406 39.44238281 -1.02882813 38.57226562 -0.75390625 37.67578125 C0.87542213 31.89293181 1.2131551 26.54519101 1.25 20.5625 C1.270625 19.72912109 1.29125 18.89574219 1.3125 18.03710938 C1.34550014 12.81896221 0.57990201 9.6466355 -2 5 C-1.1875 2.125 -1.1875 2.125 0 0 Z " fill="#FCF9FC" transform="translate(104,24)"/>
<path d="M0 0 C0.66257812 0.33902344 1.32515625 0.67804688 2.0078125 1.02734375 C9.6674189 5.68610868 13.39364386 14.76940165 16 23 C17.42584467 31.55506804 17 40.32692545 17 49 C0.5 49 -16 49 -33 49 C-31.93314074 57.60373476 -31.93314074 57.60373476 -28 61 C-23.33450152 63.33274924 -17.06255514 62.52866637 -12 62 C-8.65184857 60.42301479 -6.67438861 58.34877723 -5 55 C-0.27497299 55.63242669 3.90570197 56.91813563 8.375 58.5625 C9.01566406 58.79646484 9.65632813 59.03042969 10.31640625 59.27148438 C11.8793161 59.84299619 13.43990727 60.42084229 15 61 C10.74950428 70.97942475 4.30594208 78.59318672 -5.640625 83.16015625 C-15.68049812 86.73395214 -29.2910962 86.47321222 -39 82 C-48.3521622 77.2400088 -52.9185823 70.59425565 -56.3125 60.8125 C-61.13118291 45.62449944 -60.98113916 27.68649092 -53.64453125 13.3515625 C-48.26385435 4.66746734 -40.95027431 -0.75407839 -31.11425781 -3.53271484 C-20.98232043 -5.7720368 -9.16295746 -4.80341888 0 0 Z " fill="#434343" transform="translate(471,66)"/>
<path d="M0 0 C-0.66733519 4.03389182 -2.71687175 7.25310379 -4.8125 10.6875 C-5.15603516 11.28111328 -5.49957031 11.87472656 -5.85351562 12.48632812 C-8.43956194 16.74141747 -8.43956194 16.74141747 -11.07421875 17.95703125 C-13 18 -13 18 -16 17 C-24.74960935 16.22439069 -24.74960935 16.22439069 -33.0625 18.5 C-37.16151242 21.98852121 -39.49034628 25.9362308 -40.38305664 31.30273438 C-40.53491828 33.71450733 -40.54653227 36.08419989 -40.5 38.5 C-40.51546875 39.30308594 -40.5309375 40.10617188 -40.546875 40.93359375 C-40.50945228 46.70604846 -39.27372273 51.19919893 -36 56 C-30.54326711 60.85042924 -24.86788733 60.57587405 -17.7578125 60.40625 C-12.5505267 59.84330018 -8.6828037 58.30538028 -4 56 C0.95 63.425 0.95 63.425 6 71 C3.72654012 75.54691976 2.68381726 76.01838533 -1.75 78.125 C-2.77609375 78.62257813 -3.8021875 79.12015625 -4.859375 79.6328125 C-16.23394995 84.58443095 -30.36307162 85.15448595 -42.1875 81.0625 C-51.06516215 76.96334601 -58.12045604 70.75317596 -62.0390625 61.70703125 C-67.29746403 46.89372937 -68.5760761 30.61134069 -62 16 C-56.76353631 6.35459668 -48.95025905 -0.93338418 -38.40234375 -4.3359375 C-24.95138353 -6.96126843 -12.52296218 -5.31277183 0 0 Z " fill="#424242" transform="translate(402,68)"/>
<path d="M0 0 C8.91 0 17.82 0 27 0 C27 39.27 27 78.54 27 119 C18.09 119 9.18 119 0 119 C0 79.73 0 40.46 0 0 Z " fill="#414141" transform="translate(615,31)"/>
<path d="M0 0 C1.63001953 0.01353516 1.63001953 0.01353516 3.29296875 0.02734375 C4.12441406 0.03894531 4.95585938 0.05054687 5.8125 0.0625 C5.16724023 1.5210872 4.5212728 2.97936137 3.875 4.4375 C3.51535156 5.24960937 3.15570313 6.06171875 2.78515625 6.8984375 C2.1555097 8.29933785 1.49937358 9.68875284 0.8125 11.0625 C0.1525 11.0625 -0.5075 11.0625 -1.1875 11.0625 C-3.51089902 23.35951433 -3.16450776 33.51671404 3.75 44 C6.01889733 46.26889733 7.82569101 46.99031216 10.8125 48.0625 C12.4375 49.5625 12.4375 49.5625 13.8125 51.0625 C14.8025 51.7225 15.7925 52.3825 16.8125 53.0625 C15.25883255 58.03423583 12.31496 62.24811608 8.8125 66.0625 C7.8225 66.3925 6.8325 66.7225 5.8125 67.0625 C5.29042969 66.30066406 4.76835938 65.53882812 4.23046875 64.75390625 C-3.23503545 54.28128127 -12.47132119 43.96032709 -25.74609375 41.609375 C-27.88596531 41.35566168 -30.03697049 41.19904156 -32.1875 41.0625 C-31.8575 42.7125 -31.5275 44.3625 -31.1875 46.0625 C-30.115 46.10375 -29.0425 46.145 -27.9375 46.1875 C-14.0128496 48.00803733 -3.60322434 58.65357779 4.8125 69.0625 C1.95713275 73.25037196 -0.48189689 76.31129737 -5.5625 77.5 C-7.09823149 77.73113016 -8.64102534 77.9199921 -10.1875 78.0625 C-11.19683594 78.16691406 -11.19683594 78.16691406 -12.2265625 78.2734375 C-20.19349258 78.68606734 -26.83888941 75.67967134 -33.1875 71.0625 C-34.00089844 70.63582031 -34.81429687 70.20914063 -35.65234375 69.76953125 C-38.65588959 67.74711286 -39.79961518 65.92668793 -41.5 62.75 C-42.01175781 61.82574219 -42.52351563 60.90148437 -43.05078125 59.94921875 C-44.3225804 56.71946076 -44.54496205 54.50366801 -44.1875 51.0625 C-42.1875 48.25 -42.1875 48.25 -40.1875 46.0625 C-40.1875 45.7325 -40.1875 45.4025 -40.1875 45.0625 C-41.8375 45.0625 -43.4875 45.0625 -45.1875 45.0625 C-43.71254709 31.99863137 -37.1339589 19.45188249 -26.875 11.203125 C-18.77236443 5.27807274 -10.22744838 -0.10997256 0 0 Z " fill="#FDFCFD" transform="translate(82.1875,17.9375)"/>
<path d="M0 0 C2.27113803 0.14100857 4.54190725 0.28796755 6.8125 0.4375 C8.07707031 0.51871094 9.34164062 0.59992188 10.64453125 0.68359375 C14 1 14 1 17 2 C15.93913967 5.21232472 14.85320844 8.40923708 13.7109375 11.59375 C9.36504111 24.06749219 8.1109828 35.37003891 13 48 C14.98 47.505 14.98 47.505 17 47 C16.56130258 43.92911806 16.05098584 41.14016184 14.98828125 38.21875 C12.2226204 29.21122218 13.59175934 19.94422752 16.3125 11.125 C16.52527588 10.42906738 16.73805176 9.73313477 16.95727539 9.01611328 C17.61328125 7.0703125 17.61328125 7.0703125 19 4 C22 3 22 3 25.6875 4.375 C31.4863857 7.4513035 36.10445525 12.47354824 39.203125 18.23828125 C41.43390374 25.96946052 41.45902436 36.81044443 38.3125 44.25 C37.18359375 46.23046875 37.18359375 46.23046875 36 48 C35.49146484 48.92232422 35.49146484 48.92232422 34.97265625 49.86328125 C33.875 51.5625 33.875 51.5625 31 54 C27.60676618 54.48474769 24.40124438 54.35663533 21 54 C21.99 55.65 22.98 57.3 24 59 C12.05041843 64.28297291 -4.00090958 63.74846573 -16.109375 59.32421875 C-26.77352867 54.43888349 -35.97708017 47.79621488 -41 37 C-39.40285156 37.01353516 -39.40285156 37.01353516 -37.7734375 37.02734375 C-27.17879006 36.89607612 -16.45549067 35.5332409 -8.58105469 27.56396484 C-1.31960606 19.09582648 -0.31116898 10.93758968 0 0 Z " fill="#FEFDFE" transform="translate(98,108)"/>
<path d="M0 0 C2.86724686 0.57344937 3.8614515 0.8614515 6 3 C10.27899644 18.31430304 5.50196062 32.76788758 0 47 C5.61 47.33 11.22 47.66 17 48 C16.92136231 43.2884554 16.92136231 43.2884554 16.81982422 38.57739258 C16.78637221 34.58203588 17.23134781 31.58604675 19 28 C20 31 20 31 19 34 C18.77439324 36.39254576 18.59151405 38.78928123 18.4375 41.1875 C18.35371094 42.45980469 18.26992187 43.73210937 18.18359375 45.04296875 C18.12300781 46.01878906 18.06242187 46.99460938 18 48 C31.25925831 45.58744264 45.59519185 42.41774785 54.1875 31.125 C56 29 56 29 58.75 28.6875 C59.4925 28.790625 60.235 28.89375 61 29 C61.3125 31.1875 61.3125 31.1875 61 34 C52.94761458 44.13042037 39.48098408 49.17351453 27 51 C24.63550698 51.13111791 22.37017267 51.10085841 20 51 C20.62396703 52.72953968 21.24922128 54.458615 21.875 56.1875 C22.22304687 57.15042969 22.57109375 58.11335938 22.9296875 59.10546875 C23.90990488 61.75634859 24.93720434 64.3813098 26 67 C27.65 66.34 29.3 65.68 31 65 C30.34 66.65 29.68 68.3 29 70 C36.94627357 79.3074408 45.97457391 89.40719978 58.875 90.625 C59.61492187 90.65851563 60.35484375 90.69203125 61.1171875 90.7265625 C63 91 63 91 65 93 C64.625 95.625 64.625 95.625 64 98 C55.59476891 99.14616788 48.79173103 94.60177289 42.0625 89.984375 C35.39861805 84.83837728 30.58730775 79.03211933 26 72 C21.45924219 76.14010271 18.28157862 80.82390176 15 86 C15.763125 86.103125 16.52625 86.20625 17.3125 86.3125 C20 87 20 87 23 90 C20.03 89.34 17.06 88.68 14 88 C9.09884761 101.32063203 6.19523863 113.37142984 12 127 C11.6875 130 11.6875 130 11 132 C9.68 132.33 8.36 132.66 7 133 C1.7171915 123.12344497 1.48775367 112.2856549 4.64404297 101.59692383 C6.38648887 96.13093849 8.41484935 91.1703013 11 86 C5.39 85.34 -0.22 84.68 -6 84 C-5.95875 86.248125 -5.9175 88.49625 -5.875 90.8125 C-5.75 97.625 -5.75 97.625 -8 101 C-8 96.05 -8 91.1 -8 86 C-18.8735303 85.0626267 -29.347426 89.06420072 -38.15625 95.375 C-41.05401176 97.92895952 -42.96878355 100.72384444 -45 104 C-46.98 103.67 -48.96 103.34 -51 103 C-50.85670898 98.27139621 -48.5689193 95.86971083 -45.296875 92.7734375 C-37.09118623 86.43775264 -27.31044376 83.07909316 -17.125 81.875 C-16.43664062 81.78863281 -15.74828125 81.70226562 -15.0390625 81.61328125 C-13.36004725 81.40340434 -11.68010952 81.20092913 -10 81 C-10.56774766 77.57558515 -11.41594775 74.86363804 -13.0625 71.8125 C-15 68.20640569 -15 68.20640569 -15 66 C-15.94875 66.515625 -16.8975 67.03125 -17.875 67.5625 C-18.90625 68.036875 -19.9375 68.51125 -21 69 C-21.99 68.505 -21.99 68.505 -23 68 C-21.35 66.35 -19.7 64.7 -18 63 C-27.85649104 51.41920556 -37.38332103 42.39434634 -53 41 C-54 40 -54 40 -54.0625 37.4375 C-54.041875 36.633125 -54.02125 35.82875 -54 35 C-44.40609726 34.04060973 -37.51098969 37.47578931 -30 43.34375 C-24.74289101 47.97229161 -19.54879908 52.89067501 -16 59 C-16 59.66 -16 60.32 -16 61 C-11.3478325 57.80994228 -8.53009634 53.97406173 -6 49 C-6 48.34 -6 47.68 -6 47 C-8.46326712 45.3553326 -8.46326712 45.3553326 -11 44 C-9 43 -9 43 -5.875 43.9375 C-4.92625 44.288125 -3.9775 44.63875 -3 45 C-2.51787786 43.43840941 -2.03944127 41.87568072 -1.5625 40.3125 C-1.29566406 39.44238281 -1.02882812 38.57226562 -0.75390625 37.67578125 C0.87542213 31.89293181 1.2131551 26.54519101 1.25 20.5625 C1.270625 19.72912109 1.29125 18.89574219 1.3125 18.03710938 C1.34550014 12.81896221 0.57990201 9.6466355 -2 5 C-1.1875 2.125 -1.1875 2.125 0 0 Z " fill="#C35CB9" transform="translate(104,24)"/>
<path d="M0 0 C6.6 0.99 13.2 1.98 20 3 C21.010625 5.5575 22.02125 8.115 23.0625 10.75 C23.38484619 11.54889648 23.70719238 12.34779297 24.03930664 13.17089844 C24.4085022 14.13044434 24.4085022 14.13044434 24.78515625 15.109375 C25.04176025 15.75874023 25.29836426 16.40810547 25.56274414 17.07714844 C26.40747395 20.79188431 24.9806047 23.03403326 23.13671875 26.26953125 C16.93490511 35.58130735 16.93490511 35.58130735 11.94921875 36.66015625 C8.83894654 36.37165578 6.02629268 35.76624802 3 35 C0.33766679 34.60894333 -2.32580201 34.30480106 -5 34 C-5.97983928 31.39608461 -6.95889794 28.79188032 -7.9375 26.1875 C-8.35418945 25.08051758 -8.35418945 25.08051758 -8.77929688 23.95117188 C-9.04677734 23.23896484 -9.31425781 22.52675781 -9.58984375 21.79296875 C-9.83597412 21.1383667 -10.08210449 20.48376465 -10.33569336 19.80932617 C-10.92037033 18.21688185 -11.46355559 16.60933324 -12 15 C-10.4627223 12.85911036 -8.93365371 10.95644827 -7.1875 9 C-3.39878834 4.65524839 -3.39878834 4.65524839 0 0 Z " fill="#FEFCFE" transform="translate(102,72)"/>
<path d="M0 0 C0.66 0 1.32 0 2 0 C2.16081055 0.62865967 2.32162109 1.25731934 2.48730469 1.9050293 C6.5588441 17.88919319 6.5588441 17.88919319 11.3359375 33.671875 C12 36 12 36 12 39 C4.41 39 -3.18 39 -11 39 C-8.62156995 28.95773978 -5.68138675 19.12939963 -2.67919922 9.25927734 C-1.75396672 6.18159886 -0.87239497 3.09303671 0 0 Z " fill="#F4F4F4" transform="translate(548,65)"/>
<path d="M0 0 C1.93605765 2.90408648 2.70862423 4.98018479 3.65625 8.296875 C3.95660156 9.3384375 4.25695312 10.38 4.56640625 11.453125 C5.02853516 13.08507812 5.02853516 13.08507812 5.5 14.75 C5.96212891 16.35875 5.96212891 16.35875 6.43359375 18 C7.03012823 20.07890985 7.62272123 22.15895564 8.2109375 24.24023438 C8.68016255 25.88136059 9.16042564 27.51949599 9.6640625 29.15039062 C10.76757005 32.73679016 11 35.10775701 11 39 C3.74 39 -3.52 39 -11 39 C-8.29786313 25.62442249 -4.37605253 12.9186657 0 0 Z " fill="#F4F4F4" transform="translate(277,65)"/>
<path d="M0 0 C3.29185848 2.57623707 3.43991876 4.98699075 4 9 C12.6274658 9.20705918 20.59628191 9.21462689 29 7 C24.11808888 10.87186054 19.88913083 11.23876683 13.8125 11.5625 C12.68811523 11.62727539 12.68811523 11.62727539 11.54101562 11.69335938 C9.69421625 11.79922685 7.84713166 11.9000976 6 12 C13.5954619 23.07671527 23.3450348 31.21041826 36.578125 34.5 C47.55392017 36.10376916 59.27668631 35.85955032 70 33 C65.07957475 37.92042525 55.36646682 38.21208487 48.6875 38.4375 C32.33316619 37.98321295 17.21380061 31.97811908 5.359375 20.671875 C1.87335284 16.72412805 -2 11.4942875 -2 6 C-2.99 5.67 -3.98 5.34 -5 5 C-3.35 3.35 -1.7 1.7 0 0 Z " fill="#C96BBF" transform="translate(52,134)"/>
<path d="M0 0 C0.33 0.66 0.66 1.32 1 2 C0.07421875 4.57421875 0.07421875 4.57421875 -1.3125 7.6875 C-3.22378387 12.09938026 -4.83517149 16.34068596 -6 21 C-4.02 20.67 -2.04 20.34 0 20 C-1.07401108 22.91517292 -1.77810176 24.77810176 -4 27 C-4.40478458 31.45263035 -3.58177926 34.84782943 -2 39 C-4.89932357 36.60490662 -5.50168276 34.68754757 -6 31 C-11.26536772 35.6920612 -12.91655667 42.41856224 -13.39453125 49.26953125 C-13.74755086 58.87207637 -12.39490332 66.95556291 -9 76 C-8.56687978 77.43262843 -8.14671779 78.86936717 -7.75 80.3125 C-7.37875 81.6428125 -7.37875 81.6428125 -7 83 C-14.28243008 76.52443007 -16.54675528 63.4007112 -17.32421875 54.13671875 C-17.7691996 43.1944152 -16.33385277 32.72553028 -9.22265625 24.0703125 C-7.12576147 20.51965999 -6.41248395 16.47901917 -5.45800781 12.50219727 C-4.28136506 7.71321312 -2.76816968 4.05339132 0 0 Z " fill="#C765BD" transform="translate(43,42)"/>
<path d="M0 0 C8.92767233 11.15319523 8.42352478 26.43118719 7 40 C5.82153166 45.74843631 3.14660787 50.36198876 -0.1875 55.125 C-2.40512374 58.64261006 -2.903015 61.75499895 -3.5078125 65.828125 C-4 68 -4 68 -6 70 C-5.01 64.06 -5.01 64.06 -4 58 C-5.65 58 -7.3 58 -9 58 C-7.92598892 55.08482708 -7.22189824 53.22189824 -5 51 C-5.34761621 47.24574497 -5.9834624 43.63049144 -7 40 C-4.64520469 42.14072301 -3.35937085 44.1394109 -2 47 C-1.35242375 45.56328432 -0.70700547 44.12559584 -0.0625 42.6875 C0.47697266 41.48673828 0.47697266 41.48673828 1.02734375 40.26171875 C5.38278737 30.13400046 4.22945558 15.1842757 0.65625 4.9609375 C0 3 0 3 0 0 Z " fill="#C664BC" transform="translate(185,60)"/>
<path d="M0 0 C13.26245764 -1.12393709 24.7909155 5.62588733 34.9921875 13.546875 C40.61349425 18.59355928 43.69698637 25.32369584 47 32 C45.33333333 33.66666667 43.66666667 35.33333333 42 37 C39 31.375 39 31.375 39 28 C36.77100213 27.83109082 34.54179338 27.66496313 32.3125 27.5 C31.07113281 27.4071875 29.82976562 27.314375 28.55078125 27.21875 C25.68500671 27.04220063 22.86900043 26.95611472 20 27 C23.36999202 24.75333866 24.56105462 24.7542629 28.5 24.8125 C29.4590625 24.81894531 30.418125 24.82539062 31.40625 24.83203125 C34 25 34 25 37 26 C36.00301745 24.27189692 35.0059026 22.54386989 34.0078125 20.81640625 C33 19 33 19 32 16.6875 C30.68428648 14.46723344 29.30903132 14.13836859 27 13 C25.414206 11.89937025 23.83114759 10.79479435 22.25 9.6875 C15.32766273 5.19784299 7.88587294 3.14709464 0 1 C0 0.67 0 0.34 0 0 Z " fill="#C663BC" transform="translate(124,10)"/>
<path d="M0 0 C3.27241789 1.21200663 5.30247616 2.04883113 7.375 4.875 C8 7 8 7 8 12 C0.08 12 -7.84 12 -16 12 C-14.96418824 5.78512943 -14.49754628 4.83936878 -10 1 C-6.79997581 -0.6000121 -3.48065124 -0.36229827 0 0 Z " fill="#F9F9F9" transform="translate(454,83)"/>
<path d="M0 0 C0.495 0.99 0.495 0.99 1 2 C-9.39748051 16.03659869 -20.44705173 26.19799953 -38 30 C-43.24457842 30.68710066 -48.09959959 30.01781193 -53 28 C-54.9375 25.375 -54.9375 25.375 -56 23 C-55.25234375 23.03480469 -54.5046875 23.06960937 -53.734375 23.10546875 C-52.25710937 23.14607422 -52.25710937 23.14607422 -50.75 23.1875 C-49.77546875 23.22230469 -48.8009375 23.25710937 -47.796875 23.29296875 C-44.62531258 22.96075202 -43.32959693 22.11327721 -41 20 C-41.66 21.32 -42.32 22.64 -43 24 C-31.66522542 25.05439764 -20.7423995 19.83402911 -12 13 C-7.57525044 8.98968979 -3.32115797 4.98173696 0 0 Z " fill="#C35BB9" transform="translate(174,138)"/>
<path d="M0 0 C0.83595703 0.00451172 1.67191406 0.00902344 2.53320312 0.01367188 C4.58466649 0.02539452 6.63609273 0.04332797 8.6875 0.0625 C9.3475 2.0425 10.0075 4.0225 10.6875 6.0625 C10.02363281 6.01609375 9.35976562 5.9696875 8.67578125 5.921875 C2.80633743 5.63738443 2.80633743 5.63738443 -2.4375 8.0625 C-3.05625 8.7225 -3.675 9.3825 -4.3125 10.0625 C-3.6525 8.7425 -2.9925 7.4225 -2.3125 6.0625 C-15.13225849 5.18510208 -23.28518498 9.39864224 -33.3125 17.0625 C-33.90160156 17.49691406 -34.49070312 17.93132813 -35.09765625 18.37890625 C-39.0455022 21.43823444 -41.57049617 24.94949425 -44.3125 29.0625 C-44.6425 28.4025 -44.9725 27.7425 -45.3125 27.0625 C-33.64507409 11.42318442 -20.28919384 -0.20817642 0 0 Z " fill="#C460BA" transform="translate(89.3125,12.9375)"/>
<path d="M0 0 C0.33 0.66 0.66 1.32 1 2 C-10.80327869 17.93442623 -10.80327869 17.93442623 -17 20 C-15.81556846 15.11421991 -12.87379901 12.98334964 -9.17578125 9.9140625 C-5.76739767 6.91566402 -2.89665499 3.48503804 0 0 Z " fill="#C460BA" transform="translate(174,138)"/>
<path d="M0 0 C0 0.99 0 1.98 0 3 C1.1446875 3.1546875 1.1446875 3.1546875 2.3125 3.3125 C5.22636046 4.05790616 6.02950397 4.84458939 8 7 C6.95199219 6.7834375 6.95199219 6.7834375 5.8828125 6.5625 C4.51769531 6.2840625 4.51769531 6.2840625 3.125 6 C2.22007813 5.814375 1.31515625 5.62875 0.3828125 5.4375 C-1.92407903 4.93980405 -1.92407903 4.93980405 -4 5 C-4 4.34 -4 3.68 -4 3 C-7.3 2.67 -10.6 2.34 -14 2 C-14 1.67 -14 1.34 -14 1 C-9.32798795 -0.20568053 -4.78503708 -0.09382426 0 0 Z " fill="#CE79C5" transform="translate(119,107)"/>
<path d="M0 0 C0.66 0.99 1.32 1.98 2 3 C1.54109375 3.51949219 1.0821875 4.03898437 0.609375 4.57421875 C-2.68382608 8.31712166 -5.92952189 12.06978801 -9 16 C-9 11.2170201 -7.3338445 9.30719821 -4.5 5.75 C-3.85611328 4.91855469 -3.85611328 4.91855469 -3.19921875 4.0703125 C-2.14136807 2.70686051 -1.07180218 1.35251228 0 0 Z " fill="#C868BE" transform="translate(128,92)"/>
<path d="M0 0 C0.66 0.33 1.32 0.66 2 1 C1.41827275 4.9520518 -0.55157741 7.22095053 -3.0625 10.25 C-3.79597656 11.14203125 -4.52945313 12.0340625 -5.28515625 12.953125 C-5.85105469 13.62859375 -6.41695313 14.3040625 -7 15 C-7.66 14.34 -8.32 13.68 -9 13 C-8.51789063 12.39671875 -8.03578125 11.7934375 -7.5390625 11.171875 C-6.90742187 10.37265625 -6.27578125 9.5734375 -5.625 8.75 C-4.99851562 7.96109375 -4.37203125 7.1721875 -3.7265625 6.359375 C-2.21089263 4.28818811 -1.05780366 2.32930503 0 0 Z " fill="#C86ABF" transform="translate(99,71)"/>
<path d="M0 0 C5.4389165 -0.21755666 9.87080814 -0.10428384 15 2 C15 2.99 15 3.98 15 5 C13.06077578 4.54901762 11.12366406 4.08894441 9.1875 3.625 C8.10855469 3.36976562 7.02960938 3.11453125 5.91796875 2.8515625 C3 2 3 2 0 0 Z " fill="#CA6EC1" transform="translate(124,10)"/>
<path d="M0 0 C2.47186455 2.96346786 3.66248361 5.54041689 4.6875 9.25 C4.93886719 10.14203125 5.19023437 11.0340625 5.44921875 11.953125 C5.72185547 12.96632813 5.72185547 12.96632813 6 14 C5.01 14 4.02 14 3 14 C2.49528803 12.23050388 1.99639315 10.45934777 1.5 8.6875 C1.2215625 7.70136719 0.943125 6.71523437 0.65625 5.69921875 C0 3 0 3 0 0 Z " fill="#CC75C4" transform="translate(185,60)"/>
<path d="M0 0 C0.33 0.66 0.66 1.32 1 2 C-0.98 4.64 -2.96 7.28 -5 10 C-5.99 9.67 -6.98 9.34 -8 9 C-5.36 6.03 -2.72 3.06 0 0 Z " fill="#CC75C3" transform="translate(174,138)"/>
</svg>
