<?xml version="1.0" encoding="UTF-8"?>
<svg version="1.1" xmlns="http://www.w3.org/2000/svg" width="262" height="99">
<path d="M0 0 C86.46 0 172.92 0 262 0 C262 32.67 262 65.34 262 99 C175.54 99 89.08 99 0 99 C0 66.33 0 33.66 0 0 Z " fill="#FEFEFE" transform="translate(0,0)"/>
<path d="M0 0 C6.27 0 12.54 0 19 0 C19.7149526 6.19270646 20.42695668 12.38574212 21.13623047 18.57910156 C21.37793261 20.68596558 21.62044021 22.79273736 21.86376953 24.89941406 C22.21338305 27.92749525 22.56009866 30.95589633 22.90625 33.984375 C23.0156189 34.92617615 23.12498779 35.86797729 23.2376709 36.83831787 C23.33777466 37.71892883 23.43787842 38.59953979 23.54101562 39.50683594 C23.62984009 40.27960876 23.71866455 41.05238159 23.81018066 41.84857178 C23.99047876 43.89208547 24 45.94854792 24 48 C18.06 48 12.12 48 6 48 C4.92603934 43.70415737 4.92670204 40.39787789 5 36 C0.38 36.33 -4.24 36.66 -9 37 C-10.65 40.63 -12.3 44.26 -14 48 C-16.64 48 -19.28 48 -22 48 C-14.831722 31.92231188 -7.43703855 15.9545742 0 0 Z " fill="#040404" transform="translate(170,21)"/>
<path d="M0 0 C5.94 0 11.88 0 18 0 C20.49408949 15.98484629 21.96293794 31.85843412 23 48 C17.06 48 11.12 48 5 48 C5 44.04 5 40.08 5 36 C0.05 36 -4.9 36 -10 36 C-10.45375 37.423125 -10.9075 38.84625 -11.375 40.3125 C-12.33944209 43.3373411 -13.20931427 45.3139714 -15 48 C-18.625 48.1875 -18.625 48.1875 -22 48 C-20.61467145 43.58583188 -18.91390766 39.46227548 -16.953125 35.2734375 C-16.65944031 34.64450592 -16.36575562 34.01557434 -16.06317139 33.36758423 C-15.44276203 32.0407127 -14.8207658 30.71458211 -14.19726562 29.38916016 C-13.26320846 27.40308499 -12.33429921 25.4146697 -11.40625 23.42578125 C-7.72362936 15.55368306 -3.92061209 7.75703926 0 0 Z " fill="#030303" transform="translate(44,21)"/>
<path d="M0 0 C0.73798828 -0.01611328 1.47597656 -0.03222656 2.23632812 -0.04882812 C7.06488595 -0.05312018 10.39517523 0.62856685 14.5625 3.3125 C16.99772498 6.96533747 17.11724367 10.06218452 16.5625 14.3125 C15.9025 15.6325 15.2425 16.9525 14.5625 18.3125 C7.3025 18.3125 0.0425 18.3125 -7.4375 18.3125 C-7.4375 21.6125 -7.4375 24.9125 -7.4375 28.3125 C-4.49022465 28.21080839 -4.49022465 28.21080839 -1.4375 27.3125 C-0.7775 25.6625 -0.1175 24.0125 0.5625 22.3125 C4.5225 22.3125 8.4825 22.3125 12.5625 22.3125 C12.3671875 28.26953125 12.3671875 28.26953125 11.5625 30.3125 C6.52342672 33.90952337 1.50995567 33.79810442 -4.4375 33.75 C-5.3140625 33.76998047 -6.190625 33.78996094 -7.09375 33.81054688 C-12.67663618 33.80634289 -16.10087877 33.16802731 -20.4375 29.3125 C-23.74280557 24.72126862 -22.89290516 18.69784668 -22.4375 13.3125 C-20.53243344 7.4914633 -16.68404545 3.99134422 -11.26953125 1.19140625 C-7.46497385 0.01068154 -3.96052342 -0.01720471 0 0 Z " fill="#050505" transform="translate(134.4375,35.6875)"/>
<path d="M0 0 C5.28 0 10.56 0 16 0 C14.28038449 11.08196663 12.22190261 22.03282449 9.875 33 C9.47643799 34.87026855 9.47643799 34.87026855 9.06982422 36.77832031 C7.12938977 45.74122046 7.12938977 45.74122046 6 48 C0.72 48 -4.56 48 -10 48 C-9.36402634 41.12441807 -8.14561584 34.54352734 -6.625 27.8125 C-6.17423786 25.78390777 -5.72371658 23.75526201 -5.2734375 21.7265625 C-5.05526367 20.74977539 -4.83708984 19.77298828 -4.61230469 18.76660156 C-3.55805488 14.00314111 -2.56924303 9.22617717 -1.578125 4.44921875 C-1 2 -1 2 0 0 Z " fill="#040404" transform="translate(208,21)"/>
<path d="M0 0 C0.85916016 -0.020625 1.71832031 -0.04125 2.60351562 -0.0625 C8.86402325 -0.10135497 8.86402325 -0.10135497 12.140625 1.546875 C14.43359571 4.29340036 13.86921878 6.81474962 13.5625 10.25 C13.2325 11.24 12.9025 12.23 12.5625 13.25 C9.2625 13.25 5.9625 13.25 2.5625 13.25 C2.2325 10.94 1.9025 8.63 1.5625 6.25 C-0.8287295 6.0386547 -0.8287295 6.0386547 -3.4375 7.25 C-7.87072001 13.35452979 -7.92607276 19.98926597 -7.4375 27.25 C-4.96853118 26.95011727 -4.96853118 26.95011727 -2.4375 26.25 C-2.045625 25.404375 -1.65375 24.55875 -1.25 23.6875 C-0.651875 22.883125 -0.05375 22.07875 0.5625 21.25 C3.92895349 20.79093816 7.18463015 20.96481399 10.5625 21.25 C10.6875 27.875 10.6875 27.875 9.5625 31.25 C5.24664007 34.08180153 0.6724283 33.61780674 -4.3125 33.625 C-5.19808594 33.64949219 -6.08367187 33.67398438 -6.99609375 33.69921875 C-12.65368777 33.72451351 -15.9868625 33.08482602 -20.4375 29.25 C-23.96878839 24.30619626 -24.39904548 19.12812706 -23.4375 13.25 C-21.17414067 7.60127415 -17.80064195 4.16475106 -12.4375 1.25 C-8.27886514 -0.13621162 -4.35599891 0.02602539 0 0 Z " fill="#040404" transform="translate(95.4375,35.75)"/>
<path d="M0 0 C0.33 0.66 0.66 1.32 1 2 C1.99 2 2.98 2 4 2 C3.39405978 8.15427158 2.47673194 14.111067 1.1875 20.15625 C1.01371826 20.98459351 0.83993652 21.81293701 0.66088867 22.66638184 C0.2965217 24.3978203 -0.06995556 26.12881593 -0.43847656 27.859375 C-1.0041641 30.51958215 -1.56109094 33.18152326 -2.1171875 35.84375 C-2.47344187 37.53135911 -2.83019441 39.21886315 -3.1875 40.90625 C-3.35419189 41.70405884 -3.52088379 42.50186768 -3.69262695 43.32385254 C-4.8848624 48.8848624 -4.8848624 48.8848624 -6 50 C-8.69654854 50.07319621 -11.36691458 50.09242537 -14.0625 50.0625 C-15.20041992 50.05573242 -15.20041992 50.05573242 -16.36132812 50.04882812 C-18.24091871 50.0370068 -20.12046899 50.01907078 -22 50 C-22 48.68 -22 47.36 -22 46 C-17.71 46 -13.42 46 -9 46 C-8.68546875 44.35515625 -8.3709375 42.7103125 -8.046875 41.015625 C-5.42537858 27.33118743 -2.75921537 13.65734534 0 0 Z " fill="#9A9A9A" transform="translate(223,23)"/>
<path d="M0 0 C2.52588702 2.36292656 3.88820837 3.66462511 5 7 C4.67 7.99 4.34 8.98 4 10 C3.77820215 11.89212737 3.59385985 13.78884472 3.4375 15.6875 C3.35371094 16.68136719 3.26992187 17.67523438 3.18359375 18.69921875 C3.09271484 19.83810547 3.09271484 19.83810547 3 21 C2.67 21 2.34 21 2 21 C2 19.02 2 17.04 2 15 C-1.3 15 -4.6 15 -8 15 C-8 13.68 -8 12.36 -8 11 C-9.32 11 -10.64 11 -12 11 C-12.33 9.68 -12.66 8.36 -13 7 C-16.86694585 12.80041878 -18.05613723 18.13215645 -19 25 C-19.99 24.67 -20.98 24.34 -22 24 C-22.50909295 16.43431312 -21.96516802 10.58449434 -18 4 C-17.34 3.34 -16.68 2.68 -16 2 C-13.375 2.375 -13.375 2.375 -11 3 C-11 5.31 -11 7.62 -11 10 C-7.7 10 -4.4 10 -1 10 C-0.67 6.7 -0.34 3.4 0 0 Z " fill="#8A8A8A" transform="translate(109,39)"/>
<path d="M0 0 C0.99 0 1.98 0 3 0 C3.08040527 0.61818604 3.16081055 1.23637207 3.24365234 1.87329102 C4.16000148 8.91584586 5.07884477 15.95807217 6 23 C6.10634766 23.81339844 6.21269531 24.62679687 6.32226562 25.46484375 C6.58858423 27.49756125 6.85671542 29.53004104 7.125 31.5625 C7.27195313 32.67753906 7.41890625 33.79257812 7.5703125 34.94140625 C7.8623954 37.02050542 8.21378885 39.09194687 8.6171875 41.15234375 C9 44 9 44 8 48 C2.06 48 -3.88 48 -10 48 C-10 46.68 -10 45.36 -10 44 C-5.05 44 -0.1 44 5 44 C4.80664062 42.8346875 4.61328125 41.669375 4.4140625 40.46875 C2.25475395 27.02132619 0.97935082 13.5808003 0 0 Z " fill="#999999" transform="translate(189,25)"/>
<path d="M0 0 C0.99 0 1.98 0 3 0 C3.57747388 5.06710295 4.14679125 10.13503628 4.70898438 15.20385742 C4.90082492 16.92350192 5.09478601 18.64291136 5.29101562 20.36206055 C6.34581405 29.61576407 7.27121052 38.66866317 7 48 C1.39 48 -4.22 48 -10 48 C-10 46.68 -10 45.36 -10 44 C-5.38 44 -0.76 44 4 44 C3.71125 41.73125 3.4225 39.4625 3.125 37.125 C2.74518248 34.08391929 2.37213661 31.04202944 2 28 C1.90396484 27.22011719 1.80792969 26.44023438 1.70898438 25.63671875 C0.66295534 17.05501117 -0.27944536 8.66280615 0 0 Z " fill="#969696" transform="translate(63,25)"/>
<path d="M0 0 C3 3 3 3 3.109375 5.41015625 C2.99078125 6.28542969 2.8721875 7.16070312 2.75 8.0625 C2.64171875 8.94035156 2.5334375 9.81820312 2.421875 10.72265625 C2 13 2 13 1 15 C-0.32 15 -1.64 15 -3 15 C-3.33 15.66 -3.66 16.32 -4 17 C-4 16.34 -4 15.68 -4 15 C-7.96 15 -11.92 15 -16 15 C-16.99 17.475 -16.99 17.475 -18 20 C-21.125 20.8125 -21.125 20.8125 -24 21 C-24 17.7 -24 14.4 -24 11 C-16.74 11 -9.48 11 -2 11 C-1.34 7.37 -0.68 3.74 0 0 Z " fill="#9B9B9B" transform="translate(151,43)"/>
<path d="M0 0 C3.63 0 7.26 0 11 0 C11 1.32 11 2.64 11 4 C11.99 4 12.98 4 14 4 C13.91253716 5.43861294 13.80434652 6.87597508 13.6875 8.3125 C13.62949219 9.11300781 13.57148437 9.91351563 13.51171875 10.73828125 C12.90935468 13.40063848 12.10358809 14.31193548 10 16 C6.52878812 17.73560594 2.63771016 17.26939094 -1.1875 17.3125 C-2.44530273 17.35600586 -2.44530273 17.35600586 -3.72851562 17.40039062 C-9.68915911 17.46088115 -13.07756937 16.37709382 -18 13 C-17.67 12.34 -17.34 11.68 -17 11 C-16.34 11.33 -15.68 11.66 -15 12 C-13.52585745 12.09539628 -12.04753706 12.13073483 -10.5703125 12.1328125 C-9.69246094 12.13410156 -8.81460938 12.13539062 -7.91015625 12.13671875 C-6.99105469 12.13285156 -6.07195312 12.12898438 -5.125 12.125 C-4.21363281 12.12886719 -3.30226563 12.13273437 -2.36328125 12.13671875 C-1.48285156 12.13542969 -0.60242188 12.13414063 0.3046875 12.1328125 C1.5110083 12.13112061 1.5110083 12.13112061 2.74169922 12.12939453 C5.32031455 12.05212679 5.32031455 12.05212679 9 11 C9.33 7.7 9.66 4.4 10 1 C6.7 1 3.4 1 0 1 C0 0.67 0 0.34 0 0 Z " fill="#939393" transform="translate(96,56)"/>
<path d="M0 0 C1.32 0 2.64 0 4 0 C3.62925084 1.46491133 3.22732811 2.92195569 2.8125 4.375 C2.48185547 5.59316406 2.48185547 5.59316406 2.14453125 6.8359375 C1 9 1 9 -1.05078125 10.2734375 C-5.07167366 11.26401497 -8.87445823 11.29018385 -13 11.25 C-13.7940625 11.25773437 -14.588125 11.26546875 -15.40625 11.2734375 C-21.27928703 11.25386071 -25.04635296 10.30243136 -30 7 C-29.67 6.34 -29.34 5.68 -29 5 C-28.34 5.33 -27.68 5.66 -27 6 C-23.73478121 6.23911448 -20.46051071 6.18519344 -17.1875 6.1875 C-16.28451172 6.19974609 -15.38152344 6.21199219 -14.45117188 6.22460938 C-7.97986559 6.27803588 -7.97986559 6.27803588 -2 4 C-0.65589738 1.98264795 -0.65589738 1.98264795 0 0 Z " fill="#929292" transform="translate(147,62)"/>
<path d="M0 0 C3.2578125 -0.29296875 3.2578125 -0.29296875 7.125 -0.1875 C9.04699219 -0.14689453 9.04699219 -0.14689453 11.0078125 -0.10546875 C11.99523437 -0.07066406 12.98265625 -0.03585938 14 0 C14 1.32 14 2.64 14 4 C10.37 4 6.74 4 3 4 C2.54625 5.423125 2.0925 6.84625 1.625 8.3125 C0.66055791 11.3373411 -0.20931427 13.3139714 -2 16 C-5.625 16.1875 -5.625 16.1875 -9 16 C-8.67 14.68 -8.34 13.36 -8 12 C-7.01 12 -6.02 12 -5 12 C-4.80664062 11.38511719 -4.61328125 10.77023438 -4.4140625 10.13671875 C-4.15367187 9.32847656 -3.89328125 8.52023438 -3.625 7.6875 C-3.36976563 6.88699219 -3.11453125 6.08648437 -2.8515625 5.26171875 C-2 3 -2 3 0 0 Z " fill="#999999" transform="translate(161,57)"/>
<path d="M0 0 C4.95 0 9.9 0 15 0 C15 1.32 15 2.64 15 4 C11.04 4 7.08 4 3 4 C2.54625 5.423125 2.0925 6.84625 1.625 8.3125 C0.66055791 11.3373411 -0.20931427 13.3139714 -2 16 C-5.625 16.1875 -5.625 16.1875 -9 16 C-8.0513404 13.88375936 -7.26907549 12.25152708 -5.5625 10.65625 C-3.70279565 8.68496339 -2.85974972 6.80423209 -1.8125 4.3125 C-1.214375 2.889375 -0.61625 1.46625 0 0 Z " fill="#969696" transform="translate(34,57)"/>
<path d="M0 0 C0.66 0 1.32 0 2 0 C2.70132913 6.70019789 3.11044961 13.26257354 3 20 C-0.63 20 -4.26 20 -8 20 C-5.83836487 13.06001352 -3.1063786 6.56882431 0 0 Z " fill="#888888" transform="translate(45,32)"/>
<path d="M0 0 C0.33 0 0.66 0 1 0 C1.33745354 2.39531756 1.6700829 4.79114268 2 7.1875 C2.09539062 7.86103516 2.19078125 8.53457031 2.2890625 9.22851562 C2.78940118 12.8917095 3 16.28235944 3 20 C-0.63 20 -4.26 20 -8 20 C-7.11298809 15.56494046 -5.80059296 11.84380097 -4 7.75 C-3.72671875 7.11320312 -3.4534375 6.47640625 -3.171875 5.8203125 C-1.14074248 1.14074248 -1.14074248 1.14074248 0 0 Z " fill="#898989" transform="translate(172,32)"/>
<path d="M0 0 C2.52588702 2.36292656 3.88820837 3.66462511 5 7 C4.67 7.99 4.34 8.98 4 10 C3.77820215 11.89212737 3.59385985 13.78884472 3.4375 15.6875 C3.35371094 16.68136719 3.26992187 17.67523438 3.18359375 18.69921875 C3.12300781 19.45847656 3.06242187 20.21773437 3 21 C2.67 21 2.34 21 2 21 C2 19.02 2 17.04 2 15 C-1.3 15 -4.6 15 -8 15 C-8 13.68 -8 12.36 -8 11 C-5.69 11 -3.38 11 -1 11 C-0.67 7.37 -0.34 3.74 0 0 Z " fill="#9A9A9A" transform="translate(109,39)"/>
<path d="M0 0 C0.33 0 0.66 0 1 0 C1 3.63 1 7.26 1 11 C-4.61 11 -10.22 11 -16 11 C-16 9.68 -16 8.36 -16 7 C-11.05 6.67 -6.1 6.34 -1 6 C-0.67 4.02 -0.34 2.04 0 0 Z " fill="#9B9B9B" transform="translate(69,62)"/>
<path d="M0 0 C1.65 0.33 3.3 0.66 5 1 C5 3.64 5 6.28 5 9 C2.03 9 -0.94 9 -4 9 C-3.46930939 5.17902761 -2.50298434 2.93828597 0 0 Z " fill="#A5A5A5" transform="translate(132,41)"/>
<path d="M0 0 C7.26 0 14.52 0 22 0 C20.68 0.33 19.36 0.66 18 1 C17.67 1.66 17.34 2.32 17 3 C17 2.34 17 1.68 17 1 C13.04 1 9.08 1 5 1 C4.34 2.65 3.68 4.3 3 6 C2.01 6.33 1.02 6.66 0 7 C0 4.69 0 2.38 0 0 Z " fill="#A8A8A8" transform="translate(130,57)"/>
<path d="M0 0 C0.66 0.99 1.32 1.98 2 3 C0.625 6.6875 0.625 6.6875 -1 10 C-2.65 10 -4.3 10 -6 10 C-5.67 8.68 -5.34 7.36 -5 6 C-3.68 6 -2.36 6 -1 6 C-0.67 4.02 -0.34 2.04 0 0 Z " fill="#EBEBEB" transform="translate(153,52)"/>
<path d="M0 0 C0.66 0.33 1.32 0.66 2 1 C2 3.31 2 5.62 2 8 C0.35 8 -1.3 8 -3 8 C-1.125 2.25 -1.125 2.25 0 0 Z " fill="#F5F5F5" transform="translate(172,43)"/>
<path d="M0 0 C0.33 0 0.66 0 1 0 C1 3.3 1 6.6 1 10 C-0.65 10 -2.3 10 -4 10 C-2.68 6.7 -1.36 3.4 0 0 Z " fill="#F8F8F8" transform="translate(46,41)"/>
<path d="M0 0 C0.99 0.33 1.98 0.66 3 1 C3 3.97 3 6.94 3 10 C2.01 10.495 2.01 10.495 1 11 C0.67 7.37 0.34 3.74 0 0 Z " fill="#888888" transform="translate(66,58)"/>
<path d="M0 0 C1.65 0 3.3 0 5 0 C4.1875 2.4375 4.1875 2.4375 3 5 C2.01 5.33 1.02 5.66 0 6 C0 4.02 0 2.04 0 0 Z " fill="#F3F3F3" transform="translate(130,58)"/>
<path d="M0 0 C0.99 0 1.98 0 3 0 C3 1.98 3 3.96 3 6 C2.01 6 1.02 6 0 6 C0 4.02 0 2.04 0 0 Z " fill="#A5A5A5" transform="translate(63,25)"/>
</svg>
